Coordinates
version=1
nRows=22
nColumns=24
inDegrees=yes

Units are S.I. units (second, meters, Newtons, ...)
Angles are in degrees.

endheader
time	pelvis_tilt	pelvis_list	pelvis_rotation	pelvis_tx	pelvis_ty	pelvis_tz	hip_flexion_r	hip_adduction_r	hip_rotation_r	knee_angle_r	ankle_angle_r	subtalar_angle_r	mtp_angle_r	hip_flexion_l	hip_adduction_l	hip_rotation_l	knee_angle_l	ankle_angle_l	subtalar_angle_l	mtp_angle_l	lumbar_extension	lumbar_bending	lumbar_rotation
      0.50400000	      1.09636393	      3.67242077	      0.92365118	     -0.75629122	      1.00561926	      0.25391905	     21.65369216	     -1.63543922	     -7.65210330	     -7.13579739	      6.00548649	     -5.78973722	      9.44823497	    -15.44754497	      7.44277312	      6.20904241	     -5.45956441	     10.86521183	    -13.49050337	      2.29842921	     -5.70783374	     -5.30283627	     -3.07650471
      0.50816667	      1.15960204	      3.67980028	      0.97773860	     -0.75056905	      1.00521565	      0.25397865	     21.52694622	     -1.57882894	     -7.46607810	     -7.33494373	      6.09867402	     -5.93582115	      9.45736300	    -15.54269279	      7.43462807	      6.12034735	     -6.11789906	     11.00386683	    -13.23456875	      2.35879707	     -5.72843034	     -5.28083648	     -3.05016065
      0.51233333	      1.21550606	      3.68040135	      1.04288013	     -0.74480505	      1.00485055	      0.25402861	     21.38278961	     -1.51660342	     -7.23576058	     -7.54298046	      6.11167609	     -6.17342121	      9.47607357	    -15.60302839	      7.41563306	      6.04066002	     -6.82781575	     11.12254463	    -12.99413786	      2.43445423	     -5.73593161	     -5.24773038	     -3.13739626
      0.51650000	      1.26481284	      3.67801784	      1.09403333	     -0.73900636	      1.00450247	      0.25410203	     21.24243326	     -1.44771409	     -6.97251004	     -7.79401558	      6.06978641	     -6.43978162	      9.51221724	    -15.62267849	      7.39336286	      5.89394265	     -7.60298023	     11.23684494	    -12.67137287	      2.54935395	     -5.73256463	     -5.20626758	     -3.18574434
      0.52066667	      1.32120403	      3.67808590	      1.14840859	     -0.73318634	      1.00419719	      0.25418045	     21.08176134	     -1.38320941	     -6.68833821	     -8.06671503	      5.99517764	     -6.72376875	      9.56237217	    -15.61466858	      7.36918570	      5.73334981	     -8.44860600	     11.33711746	    -12.31683652	      2.69372268	     -5.73404538	     -5.16882935	     -3.22839167
      0.52483333	      1.38409257	      3.68028335	      1.19623727	     -0.72733377	      1.00392955	      0.25426644	     20.90613880	     -1.32096834	     -6.38904770	     -8.36313978	      5.87818053	     -7.01530220	      9.62523468	    -15.58378915	      7.34498965	      5.53377032	     -9.34815154	     11.40406772	    -11.93063665	      2.87038907	     -5.73566299	     -5.13411301	     -3.25840100
      0.52900000	      1.44313967	      3.67714922	      1.23637760	     -0.72146182	      1.00368322	      0.25437428	     20.73325405	     -1.25301436	     -6.07931992	     -8.69000955	      5.70388404	     -7.33014744	      9.70579496	    -15.50670182	      7.31048497	      5.28721305	    -10.32983200	     11.46235888	    -11.47695578	      3.09702475	     -5.73347139	     -5.08885001	     -3.27419629
      0.53316667	      1.49859361	      3.67671131	      1.27860948	     -0.71557642	      1.00346172	      0.25448090	     20.55905847	     -1.19136852	     -5.76992000	     -9.03475192	      5.50126559	     -7.63899460	      9.79750546	    -15.38488742	      7.27361973	      5.01345113	    -11.39016250	     11.49485910	    -10.98663345	      3.36312037	     -5.72317831	     -5.05155800	     -3.28086470
      0.53733333	      1.55491451	      3.65863520	      1.30780825	     -0.70964906	      1.00327617	      0.25459602	     20.38299459	     -1.11321363	     -5.48309962	     -9.40274995	      5.22486744	     -7.94569645	      9.93612167	    -15.22259858	      7.21095098	      4.64658775	    -12.52002476	     11.48323285	    -10.41162461	      3.78918218	     -5.70750819	     -4.96449099	     -3.27012227
      0.54150000	      1.60151566	      3.67574956	      1.35028121	     -0.70376149	      1.00309819	      0.25473843	     20.21379848	     -1.07390721	     -5.16316097	     -9.78225465	      4.98801753	     -8.27447679	     10.03930561	    -15.00300624	      7.17675967	      4.31651601	    -13.73915946	     11.44874932	     -9.85494412	      4.13714703	     -5.67990565	     -4.96591280	     -3.25906594
      0.54566667	      1.68476473	      3.65797932	      1.37546416	     -0.69784456	      1.00299106	      0.25488676	     20.01247469	     -1.00318897	     -4.90700972	    -10.18780807	      4.65185183	     -8.58712634	     11.87022783	    -14.78751440	      7.09224409	      3.88063329	    -15.00483133	     11.25711206	     -9.30932668	     10.91483366	     -5.70417749	     -4.89166028	     -3.21379309
      0.54983333	      1.70237397	      3.65759997	      1.41578141	     -0.69194262	      1.00282649	      0.25503590	     19.88764164	     -0.95841595	     -4.65265346	    -10.62356221	      4.35667206	     -8.87286269	     11.84850818	    -14.44218523	      7.01981675	      3.46115404	    -16.39097115	     11.13744646	     -8.66583819	     10.99074089	     -5.63792316	     -4.85628989	     -3.20049273
      0.55400000	      1.76012483	      3.63561555	      1.44386094	     -0.68604583	      1.00273342	      0.25521458	     19.71786579	     -0.89072726	     -4.41521713	    -11.06234017	      4.03789045	     -9.15578120	     11.83356521	    -14.09488185	      6.90626336	      2.95804490	    -17.85351584	     10.97250939	     -7.92581124	     11.13562033	     -5.62594846	     -4.78755960	     -3.15203649
      0.55816667	      1.80366730	      3.61392559	      1.47515718	     -0.68016858	      1.00264157	      0.25540337	     19.57206109	     -0.83015674	     -4.20803665	    -11.52675333	      3.73012917	     -9.41679761	     11.82224225	    -13.68454778	      6.78017610	      2.44604347	    -19.39435163	     10.75078371	     -7.19262220	     11.34384450	     -5.59759737	     -4.71945185	     -3.10025598
      0.56233333	      1.87157892	      3.57028064	      1.50010969	     -0.67432805	      1.00259038	      0.25561061	     19.40991911	     -0.74892990	     -4.02034759	    -12.01545012	      3.43108466	     -9.69040348	     11.80874398	    -13.25033351	      6.61406487	      1.88924709	    -21.01887412	     10.51326383	     -6.43149726	     11.70150841	     -5.61050615	     -4.61377799	     -3.03472617
      0.56650000	      1.91195006	      3.53721131	      1.52954022	     -0.66851662	      1.00252378	      0.25583005	     19.28846026	     -0.68696442	     -3.87062069	    -12.52971701	      3.15229771	     -9.90651976	     11.79430585	    -12.74131898	      6.44305215	      1.32616346	    -22.70636975	     10.15910833	     -5.67975748	     12.10449505	     -5.58667990	     -4.53594349	     -2.96600219
      0.57066667	      1.96242582	      3.48942903	      1.56633377	     -0.66270490	      1.00251815	      0.25605817	     19.14151205	     -0.61464889	     -3.74669359	    -13.01941870	      2.87678221	    -10.10796330	     11.49972808	    -12.21388097	      6.23675775	      0.77076633	    -24.41311252	      9.57745272	     -5.06767214	     19.60234825	     -5.57225952	     -4.44142276	     -2.88458539
      0.57483333	      1.97691051	      3.45268348	      1.59342676	     -0.65694918	      1.00245313	      0.25629852	     19.06702889	     -0.56215497	     -3.66081879	    -13.57943674	      2.69515347	    -10.19554910	     11.49731589	    -11.59818200	      6.03568453	      0.21251072	    -26.20691392	      9.04609666	     -4.38147286	     19.66011395	     -5.51303935	     -4.37052768	     -2.81397006
      0.57900000	      2.02504600	      3.38960146	      1.61771565	     -0.65126076	      1.00243690	      0.25655424	     18.96125604	     -0.48274098	     -3.59411774	    -14.14532297	      2.50281018	    -10.33772654	     11.48506219	    -10.97791234	      5.78949026	     -0.34776728	    -28.06249125	      8.50985560	     -3.69678599	     19.78231728	     -5.51924650	     -4.25065413	     -2.72025960
      0.58316667	      2.04841156	      3.32246516	      1.65194189	     -0.64556820	      1.00243324	      0.25681380	     18.86358146	     -0.40503033	     -3.55120689	    -14.67782669	      2.36818055	    -10.41409849	     11.46869532	    -10.30374271	      5.52456998	     -0.88554734	    -29.94193695	      7.83577917	     -3.09593807	     19.92158960	     -5.47672473	     -4.14232617	     -2.62572938
      0.58733333	      2.08438022	      3.24248244	      1.67809738	     -0.63996317	      1.00242621	      0.25709063	     18.77320474	     -0.31539821	     -3.53069372	    -15.24693689	      2.25613733	    -10.49556457	     11.44127882	     -9.60552067	      5.23400075	     -1.41599184	    -31.87563539	      7.17531929	     -2.51740805	     20.10893875	     -5.47335042	     -4.01393895	     -2.51651715
      0.59150000	      2.12671278	      3.15921167	      1.69993707	     -0.63439048	      1.00245622	      0.25737811	     18.66635496	     -0.22403211	     -3.52798442	    -15.79507863	      2.19064384	    -10.53583101	     11.40764494	     -8.89343866	      4.93154708	     -1.92214665	    -33.81509528	      6.42419667	     -2.02037973	     20.30874418	     -5.47546322	     -3.87518041	     -2.40381865
